# xmcd
#
# Track frame offsets: 
#        150
#        24661
#        41110
#        59683
#        77562
#        98184
#        117699
#        139818
#        155176
#        176905
#        197159
#        214823
#
# Disc length: 3100 seconds
#
# Revision: 0
# Processed by: cddbd v1.5.2PL0 Copyright (c) Steve Scherf et al.
# Submitted via: ExactAudioCopy v1.3
#
DISCID=bb0c1a0c
DTITLE=Bob Weir - blue mountain
DYEAR=2016
DGENRE=Country
TTITLE0=ONLY A RIVER
TTITLE1=COTTONWOOD LULLABY
TTITLE2=GONESVILLE
TTITLE3=LAY MY LILY DOWN
TTITLE4=GALLOP ON THE RUN
TTITLE5=WHATEVER HAPPENED TO ROSE
TTITLE6=GHOST TOWN
TTITLE7=DARKEST HOUR
TTITLE8=KI-YI BOSSIE
TTITLE9=STORM COUNTRY
TTITLE10=BLUE MOUNTAIN
TTITLE11=ONE MORE RIVER TO CROSS
EXTD=
EXTT0=
EXTT1=
EXTT2=
EXTT3=
EXTT4=
EXTT5=
EXTT6=
EXTT7=
EXTT8=
EXTT9=
EXTT10=
EXTT11=
PLAYORDER=
